<?xml version="1.0" standalone="no"?>
<!DOCTYPE svg PUBLIC "-//W3C//DTD SVG 20010904//EN"
 "http://www.w3.org/TR/2001/REC-SVG-20010904/DTD/svg10.dtd">
<svg version="1.0" xmlns="http://www.w3.org/2000/svg"
 width="448.000000pt" height="420.000000pt" viewBox="0 0 448.000000 420.000000"
 preserveAspectRatio="xMidYMid meet">
<metadata>
Created by potrace 1.16, written by Peter Selinger 2001-2019
</metadata>
<g transform="translate(0.000000,420.000000) scale(0.100000,-0.100000)"
fill="#000000" stroke="none">
<path d="M2170 3294 c-137 -17 -257 -40 -363 -70 -591 -168 -1134 -567 -1470
-1079 -252 -386 -339 -807 -231 -1123 68 -200 209 -357 407 -455 182 -90 352
-123 593 -114 537 19 1112 286 1567 726 l118 115 -22 17 c-22 16 -25 15 -122
-67 -308 -259 -644 -415 -1012 -470 -294 -44 -586 32 -755 196 -302 292 -247
819 133 1289 304 374 727 637 1188 737 64 14 127 19 269 19 213 0 279 -14 430
-88 112 -55 234 -172 276 -264 15 -35 32 -63 37 -63 10 0 67 29 67 34 0 2 -9
35 -21 72 -64 209 -212 378 -422 481 -144 71 -286 102 -492 107 -77 3 -156 2
-175 0z m340 -80 c182 -34 350 -111 453 -207 l52 -48 -50 25 c-148 75 -268
100 -475 100 -120 0 -181 -5 -270 -23 -395 -78 -801 -301 -1101 -604 -271
-274 -432 -552 -494 -857 -35 -171 -7 -386 67 -519 140 -252 395 -381 753
-381 242 0 503 64 748 184 48 24 87 42 87 40 0 -7 -238 -143 -329 -189 -318
-159 -666 -236 -967 -215 -329 24 -568 144 -715 361 -99 146 -134 288 -126
513 5 169 26 261 96 435 223 552 804 1077 1431 1292 115 40 224 68 350 89 138
24 377 26 490 4z"/>
<path d="M3827 2511 c-102 -27 -106 -32 -123 -202 -8 -79 -12 -166 -9 -194 5
-41 2 -53 -13 -66 -22 -18 -47 -137 -37 -170 8 -23 36 -24 118 -4 100 23 107
32 122 148 10 75 -8 86 -97 61 -12 -4 -18 0 -18 10 0 9 13 18 34 22 60 11 68
28 82 191 11 131 15 149 33 162 12 7 21 24 21 37 0 29 -16 30 -113 5z m66 -29
c-19 -15 -23 -33 -33 -167 -7 -82 -14 -153 -16 -157 -3 -4 -21 -10 -40 -14
-45 -8 -64 -28 -64 -66 0 -29 1 -30 38 -23 20 3 47 9 60 12 19 4 22 1 22 -23
-1 -35 -15 -113 -23 -120 -7 -8 -118 -33 -146 -34 -23 0 -23 1 -17 63 6 47 13
67 32 85 24 23 34 84 16 96 -11 6 21 313 33 325 10 9 113 38 145 40 10 0 8 -5
-7 -17z"/>
<path d="M3813 2462 c-12 -2 -26 -9 -31 -15 -12 -14 -47 -285 -39 -293 3 -3
19 -3 36 1 25 5 32 14 40 43 17 65 35 253 25 260 -5 5 -19 6 -31 4z"/>
<path d="M3263 2499 c-26 -8 -33 -16 -37 -42 -6 -32 -56 -591 -56 -614 0 -16
13 -16 61 -3 42 12 62 53 35 74 -13 10 -11 44 15 271 30 275 34 326 22 324 -5
0 -22 -5 -40 -10z m17 -53 c0 -28 -48 -487 -55 -528 -3 -20 0 -28 10 -28 8 0
15 -4 15 -9 0 -9 -41 -23 -49 -16 -2 3 6 116 18 252 31 349 32 353 47 353 8 0
14 -10 14 -24z"/>
<path d="M3555 2447 c-71 -28 -67 -14 -91 -263 -30 -301 -31 -275 9 -267 17 3
34 7 36 9 2 2 14 101 27 220 21 195 32 249 49 232 4 -4 -18 -246 -38 -410 -3
-24 0 -28 22 -28 14 0 32 4 39 9 14 8 65 471 55 497 -6 17 -66 17 -108 1z m82
-71 c-3 -28 -14 -131 -23 -228 -13 -128 -21 -178 -30 -178 -9 0 -11 11 -8 33
12 88 44 401 40 404 -2 2 -20 1 -40 -2 -44 -9 -39 7 -66 -250 -12 -110 -23
-201 -26 -204 -2 -2 -7 -2 -10 1 -6 7 34 437 42 450 8 12 97 36 113 30 10 -4
12 -18 8 -56z"/>
<path d="M3008 2443 c-10 -2 -20 -18 -23 -36 -14 -88 -55 -578 -49 -588 8 -14
97 -6 136 11 15 7 31 24 37 39 5 14 19 122 31 239 25 242 24 248 -42 239 l-38
-5 0 54 c0 56 -4 60 -52 47z m22 -83 l0 -60 26 10 c14 6 36 10 50 10 30 0 30
4 3 -249 -11 -112 -25 -201 -32 -207 -7 -7 -34 -16 -60 -22 -39 -8 -49 -7 -54
4 -3 8 7 137 21 286 14 150 26 276 26 281 0 4 5 7 10 7 6 0 10 -27 10 -60z"/>
<path d="M3049 2289 c-23 -9 -27 -17 -32 -67 -17 -157 -29 -343 -24 -356 5
-12 12 -13 37 -5 16 6 32 14 35 18 8 14 37 391 31 406 -6 17 -10 17 -47 4z"/>
<path d="M3387 2413 c-16 -3 -30 -10 -32 -16 -2 -7 -13 -111 -25 -232 -11
-121 -23 -235 -26 -253 l-5 -33 38 7 c21 3 43 11 49 18 7 6 16 90 23 196 6
102 14 215 18 253 3 37 2 66 -3 66 -5 -1 -22 -4 -37 -6z"/>
<path d="M2720 2260 l-115 -27 3 -53 c1 -28 -6 -133 -18 -231 -11 -99 -20
-192 -20 -208 0 -28 1 -29 36 -21 19 5 38 11 41 14 4 3 16 104 27 223 17 176
24 218 36 218 17 0 18 15 -10 -250 -11 -98 -17 -181 -15 -183 6 -7 48 6 67 20
14 11 20 50 34 225 13 154 21 214 31 217 17 7 16 -32 -6 -258 l-17 -178 39 5
c21 3 40 7 42 9 2 1 12 113 23 248 15 183 17 247 9 252 -20 13 -67 7 -187 -22z
m167 -57 c-4 -32 -11 -121 -17 -198 -14 -181 -18 -205 -35 -205 -10 0 -12 9
-9 33 8 59 34 350 34 380 0 27 -2 28 -32 22 -18 -4 -36 -10 -40 -14 -4 -4 -16
-102 -26 -219 -17 -189 -29 -248 -47 -230 -3 2 4 87 15 188 11 100 20 198 20
217 0 35 0 35 -37 28 -21 -4 -39 -8 -40 -8 -1 -2 -43 -420 -43 -436 0 -6 -7
-11 -15 -11 -19 0 -19 13 5 228 11 97 19 190 18 206 -3 29 -3 29 92 52 52 12
110 22 129 23 l34 1 -6 -57z"/>
<path d="M2300 2200 c-11 -11 -20 -24 -20 -29 0 -5 -15 -13 -32 -16 -47 -10
-84 -31 -92 -52 -14 -37 -36 -335 -26 -348 12 -15 4 -41 -21 -66 -11 -11 -20
-42 -24 -84 -7 -58 -5 -68 11 -80 24 -18 54 -17 129 3 51 15 63 22 77 52 22
44 24 127 3 151 -13 14 -22 15 -56 7 -22 -6 -42 -8 -45 -5 -11 11 6 25 37 32
19 4 38 19 53 43 20 32 25 59 36 188 6 83 15 167 20 187 7 33 6 37 -11 37 -10
0 -28 -9 -39 -20z m4 -190 c-8 -91 -20 -175 -26 -188 -8 -14 -27 -26 -54 -33
-35 -9 -43 -16 -48 -41 -11 -55 -10 -56 39 -46 25 5 52 7 60 4 20 -7 21 -109
1 -129 -18 -17 -129 -42 -152 -33 -26 10 -15 113 16 138 20 17 22 24 17 76 -6
51 7 274 19 329 2 12 12 24 22 27 9 3 36 10 59 16 28 7 44 17 48 31 14 42 13
9 -1 -151z"/>
<path d="M2243 2106 c-17 -6 -34 -14 -38 -17 -7 -8 -36 -282 -30 -287 4 -4 85
8 85 13 0 1 7 67 15 146 8 78 12 146 8 150 -5 3 -22 1 -40 -5z"/>
<path d="M2458 2203 c-68 -16 -68 -16 -68 -50 l0 -34 45 7 45 6 -1 -43 c-2
-73 -11 -93 -48 -100 -60 -12 -69 -31 -82 -167 -16 -160 -15 -161 97 -137 44
10 82 23 87 29 4 6 5 31 2 56 -3 25 3 128 14 230 19 183 17 221 -12 219 -7 -1
-42 -8 -79 -16z m77 -23 c3 -5 -4 -100 -15 -212 -11 -112 -19 -212 -17 -222 2
-16 -9 -22 -62 -34 -44 -10 -66 -11 -70 -3 -8 12 11 221 22 237 4 7 27 15 51
18 52 8 52 9 62 120 l7 79 -47 -6 c-25 -4 -46 -3 -46 2 0 7 44 20 102 30 4 0
9 -3 13 -9z"/>
<path d="M2434 1940 c-18 -7 -23 -22 -33 -97 -6 -49 -11 -95 -11 -101 0 -14
48 -16 68 -3 11 6 29 125 32 204 0 9 -29 8 -56 -3z"/>
<path d="M1840 2063 c-30 -8 -58 -20 -62 -26 -10 -16 -10 -55 0 -59 5 -1 -1
-103 -12 -225 -23 -243 -25 -231 34 -214 25 7 25 9 46 225 19 192 31 252 49
235 2 -3 -7 -99 -20 -213 -14 -114 -23 -212 -19 -217 8 -13 48 -11 66 4 22 17
66 486 46 498 -19 12 -65 9 -128 -8z m110 -35 c0 -13 -9 -115 -20 -228 -11
-113 -20 -206 -20 -207 0 -2 -7 -3 -15 -3 -19 0 -19 -4 10 230 13 107 20 199
15 204 -4 4 -23 3 -42 -3 l-34 -11 -21 -214 c-11 -118 -24 -219 -27 -225 -20
-31 -20 14 -4 181 11 101 17 204 15 229 l-4 47 41 10 c23 5 56 10 74 11 27 1
32 -3 32 -21z"/>
<path d="M1220 2046 l-44 -12 -23 -113 c-13 -63 -25 -116 -27 -118 -2 -2 -7
41 -11 97 l-7 101 -42 -6 c-22 -4 -44 -10 -48 -14 -7 -6 -71 -641 -65 -647 1
-2 16 0 32 5 34 9 33 5 56 231 13 137 25 145 28 18 1 -51 3 -58 22 -58 24 0
38 31 64 138 10 40 20 71 22 68 3 -2 -5 -80 -16 -172 -12 -91 -20 -168 -18
-170 3 -3 77 15 77 19 0 1 14 141 30 310 17 170 30 315 30 323 0 16 0 16 -60
0z"/>
<path d="M1616 2010 c-27 -11 -54 -24 -60 -30 -11 -11 -57 -456 -49 -477 3 -6
12 -13 21 -15 21 -5 144 20 153 30 4 4 18 115 32 247 18 170 23 243 15 252
-15 18 -54 15 -112 -7z m89 -20 c3 -5 -3 -96 -15 -202 -30 -281 -20 -252 -87
-266 -32 -6 -61 -8 -65 -4 -11 11 30 434 43 447 26 26 112 44 124 25z"/>
<path d="M1633 1969 c-26 -8 -32 -15 -37 -47 -5 -30 -30 -265 -39 -362 -2 -23
1 -25 33 -22 19 2 38 7 43 11 13 12 52 410 42 419 -6 5 -24 5 -42 1z"/>
<path d="M1401 1965 c-95 -22 -101 -34 -122 -247 -25 -251 -25 -262 6 -276 55
-25 160 25 170 82 3 17 12 108 20 201 8 94 18 184 20 201 7 43 -22 55 -94 39z
m65 -74 c-3 -25 -13 -120 -22 -211 -17 -182 -22 -193 -86 -210 -51 -14 -79 0
-73 38 3 15 12 108 21 207 18 202 20 208 94 222 65 14 73 9 66 -46z"/>
<path d="M1398 1923 c-14 -2 -31 -10 -37 -17 -5 -6 -17 -86 -26 -176 -8 -91
-18 -182 -21 -202 -6 -37 -5 -38 23 -38 55 0 59 11 82 205 23 193 25 236 14
234 -5 -1 -20 -4 -35 -6z"/>
</g>
</svg>
